<?xml version="1.0" encoding="utf-8"?>
<!-- Generator: Adobe Illustrator 22.0.0, SVG Export Plug-In . SVG Version: 6.00 Build 0)  -->
<svg version="1.1" id="Layer_1" xmlns="http://www.w3.org/2000/svg" xmlns:xlink="http://www.w3.org/1999/xlink" x="0px" y="0px"
	 viewBox="0 0 24 24" enable-background="new 0 0 24 24" xml:space="preserve">
<path fill="#969EB7" d="M12,0.1C5.4,0.1,0.1,5.4,0.1,12S5.4,23.9,12,23.9c6.6,0,11.9-5.3,11.9-11.9S18.6,0.1,12,0.1z M12,22.2
	C6.4,22.2,1.8,17.6,1.8,12S6.4,1.8,12,1.8S22.2,6.4,22.2,12S17.6,22.2,12,22.2z M17.5,11.1h-4.6V6.4c0-0.5-0.4-0.8-0.8-0.8
	s-0.8,0.4-0.8,0.8V11H6.5c-0.5,0-0.8,0.4-0.8,0.8c0,0.5,0.4,0.8,0.8,0.8h4.6v4.6c0,0.5,0.4,0.8,0.8,0.8s0.8-0.4,0.8-0.8v-4.6h4.6
	c0.5,0,0.8-0.4,0.8-0.8C18.3,11.4,17.9,11.1,17.5,11.1z"/>
</svg>
