<?xml version="1.0" encoding="utf-8"?>
<!-- Generator: Adobe Illustrator 22.0.0, SVG Export Plug-In . SVG Version: 6.00 Build 0)  -->
<svg version="1.1" id="Layer_1" xmlns="http://www.w3.org/2000/svg" xmlns:xlink="http://www.w3.org/1999/xlink" x="0px" y="0px"
	 viewBox="0 0 24 24" enable-background="new 0 0 24 24" xml:space="preserve">
<path fill="#969EB7" d="M12,0C5.4,0,0,5.4,0,12c0,6.6,5.4,12,12,12s12-5.4,12-12C24,5.4,18.6,0,12,0z M12,22.6
	C6.1,22.6,1.4,17.9,1.4,12C1.4,6.1,6.1,1.4,12,1.4S22.6,6.1,22.6,12C22.6,17.9,17.9,22.6,12,22.6z M18.6,5.7
	c-0.2-0.3-0.6-0.5-0.9-0.3L9.9,9.6C9.7,9.7,9.7,9.8,9.6,9.9l-4.2,7.8c-0.1,0.3-0.1,0.6,0.1,0.8c0,0,0.1,0.1,0.2,0.1
	c0.2,0.1,0.4,0.1,0.6,0l0,0l0,0c0,0,0,0,0,0l7.8-4.2c0.1-0.1,0.2-0.2,0.3-0.3l4.2-7.8c0,0,0,0,0,0l0,0l0,0
	C18.7,6.1,18.7,5.9,18.6,5.7z M7.7,16.3l2.7-5l2.3,2.3L7.7,16.3z M13.6,12.7l-2.3-2.3l5-2.7L13.6,12.7z"/>
</svg>
