<?xml version="1.0" encoding="utf-8"?>
<!-- Generator: Adobe Illustrator 22.0.0, SVG Export Plug-In . SVG Version: 6.00 Build 0)  -->
<svg version="1.1" id="Layer_1" xmlns="http://www.w3.org/2000/svg" xmlns:xlink="http://www.w3.org/1999/xlink" x="0px" y="0px"
	 viewBox="0 0 24 21" enable-background="new 0 0 24 21" xml:space="preserve">
<path id="inbox.icn" fill="#969EB7" d="M0,19.8C0,19.8,0,19.8,0,19.8c0,0.1,0,0.1,0,0.2s0,0,0,0.1c0,0,0,0,0,0.1c0,0,0,0,0,0.1
	c0,0,0,0,0,0.1c0,0,0,0,0.1,0.1l0,0c0,0,0,0,0,0c0.1,0.1,0.1,0.1,0.2,0.1c0,0,0,0,0,0c0.1,0,0.2,0,0.2,0H23c0.1,0,0.2,0,0.2,0
	c0,0,0,0,0,0c0.1,0,0.2-0.1,0.2-0.1c0,0,0,0,0,0l0,0c0,0,0,0,0.1-0.1c0,0,0,0,0-0.1c0,0,0,0,0-0.1c0,0,0,0,0-0.1c0,0,0,0,0-0.1
	c0,0,0-0.1,0-0.1c0,0,0,0,0-0.1c0,0,0-0.1,0-0.1s0,0,0,0V0.8c0-0.5-0.4-0.8-0.8-0.8H0.8C0.4,0,0,0.4,0,0.8v18.8
	C0,19.7,0,19.7,0,19.8C0,19.7,0,19.7,0,19.8z M2.6,18.8l6.2-7.4l2.6,1.8c0.1,0.1,0.3,0.1,0.5,0.1s0.3,0,0.5-0.1l2.6-1.8l6.2,7.4H2.6
	z M22.2,17.3l-5.8-6.9l5.8-4L22.2,17.3L22.2,17.3z M1.7,1.7h20.5v2.6l-10.2,7.1L1.7,4.3V1.7z M1.7,6.4l5.8,4l-5.8,6.9V6.4z"/>
</svg>
