<?xml version="1.0" encoding="utf-8"?>
<!-- Generator: Adobe Illustrator 22.0.0, SVG Export Plug-In . SVG Version: 6.00 Build 0)  -->
<svg version="1.1" id="Layer_1" xmlns="http://www.w3.org/2000/svg" xmlns:xlink="http://www.w3.org/1999/xlink" x="0px" y="0px"
	 viewBox="0 0 26 37" enable-background="new 0 0 26 37" xml:space="preserve">
<title>man</title>
<desc>Created with Sketch.</desc>
<g id="trainer">
	<g id="_x34_.0_x5F_profile_x5F_overview" transform="translate(-298.000000, -683.000000)">
		<g id="man" transform="translate(298.000000, 682.849976)">
			<path id="Shape" fill="#4C84FF" d="M22.6,20.6l-4.4-1.7c-0.5-0.2-0.8-0.7-0.8-1.2v-1.6c0.8-0.9,1.3-1.9,1.6-3.1c0,0,0,0,0,0
				c0.2,0,0.3,0,0.5,0c0.8-0.2,1.3-0.9,1.3-1.8v-0.4c0-0.5-0.2-1-0.5-1.3c0.5-3,0.1-5.4-1.3-7c-1.3-1.6-3.5-2.3-6.3-2.1
				C10.1,0.4,8.4,1.6,7.9,2C7.2,2.1,5.2,2.6,5.2,5.5c0,1.6,0.3,2.9,0.4,3.6c-0.6,0.3-1,0.9-1,1.6v0.4c0,0.8,0.6,1.6,1.3,1.8
				c0.2,0,0.3,0.1,0.5,0c0,0,0,0,0,0c0.2,1.2,0.8,2.3,1.6,3.2v1.6c0,0.5-0.3,1-0.8,1.2l-4.4,1.7C1,21.3-0.1,23,0,24.9l0.5,11.7
				c0,0.3,0.3,0.6,0.6,0.6c0,0,0,0,0,0c0.3,0,0.6-0.3,0.6-0.6L1.2,24.8c0-0.4,0-0.7,0.1-1.1l1.9,1.9c0.5,0.5,0.8,1.3,0.8,2v8.9
				c0,0.3,0.3,0.6,0.6,0.6c0.3,0,0.6-0.3,0.6-0.6v-8.9c0-1.1-0.4-2.1-1.2-2.9l-2.1-2.1c0.3-0.4,0.8-0.7,1.3-0.9l3.9-1.5
				c0.5,1,1.8,3.4,4.5,5.4c0.3,0.2,0.7,0.4,1.1,0.4c0.4,0,0.8-0.1,1.1-0.4c2.7-2,4-4.4,4.5-5.4l3.9,1.5c0.5,0.2,1,0.5,1.3,0.9
				l-2.1,2.1c-0.8,0.8-1.2,1.8-1.2,2.9v8.9c0,0.3,0.3,0.6,0.6,0.6c0.3,0,0.6-0.3,0.6-0.6v-8.9c0-0.8,0.3-1.5,0.8-2l1.9-1.9
				c0.1,0.3,0.2,0.7,0.1,1.1l-0.5,11.7c0,0.3,0.2,0.6,0.6,0.6c0,0,0,0,0,0c0.3,0,0.6-0.2,0.6-0.6l0.5-11.7
				C25.4,23,24.3,21.3,22.6,20.6z M7.6,12.7c-0.1-0.6-0.6-1-1.2-1c-0.1,0-0.1,0-0.2,0c-0.2-0.1-0.4-0.3-0.4-0.6v-0.4
				c0-0.3,0.2-0.6,0.5-0.6c0.2,0,0.4,0,0.6,0.2c0.1,0.1,0.3,0.2,0.4,0.3c0.2,0.1,0.5,0,0.7-0.1c0.5-0.4,1.2-1.2,1.5-2
				C9.5,8.2,9.3,7.8,9,7.7C8.7,7.6,8.4,7.8,8.3,8.1C8.2,8.5,7.8,9,7.5,9.3C7.3,9.2,7,9,6.8,9C6.6,8.4,6.4,7.1,6.4,5.5
				c0-1,0.3-1.6,0.9-2c0.5-0.3,0.9-0.3,0.9-0.3c0.2,0,0.3-0.1,0.4-0.2c0,0,1.5-1.4,4.1-1.6c2.4-0.1,4.2,0.5,5.3,1.7
				c1.1,1.3,1.5,3.3,1.1,5.7c-0.1,0-0.2,0-0.4,0l0-0.5c0-0.1-0.1-0.3-0.2-0.4c0,0-1.2-1.1-3.1-2c-2.5-1.1-5.1-1.3-7.5-0.5
				C7.6,5.7,7.5,6,7.6,6.3C7.7,6.6,8,6.8,8.3,6.7c2.2-0.8,4.4-0.6,6.6,0.4c1.3,0.6,2.3,1.4,2.6,1.7l0.1,1c0,0.2,0.1,0.4,0.3,0.5
				c0.2,0.1,0.4,0.1,0.6,0c0.1-0.1,0.5-0.1,0.6-0.1c0.3,0.1,0.5,0.3,0.5,0.6v0.4c0,0.3-0.2,0.6-0.4,0.6c-0.1,0-0.1,0-0.2,0
				c-0.6,0-1.1,0.4-1.2,1c-0.5,2.5-2.6,4.2-5.1,4.2S8,15.2,7.6,12.7z M13.1,24.6c-0.2,0.2-0.6,0.2-0.8,0c-2.5-1.8-3.7-4-4.1-4.9
				c0.6-0.5,1.1-1.2,1.1-2v-0.6c1,0.7,2.2,1,3.5,1c1.3,0,2.5-0.4,3.5-1.1v0.6c0,0.8,0.4,1.5,1,2C16.8,20.6,15.6,22.8,13.1,24.6z"/>
		</g>
	</g>
</g>
</svg>
