<?xml version="1.0" encoding="utf-8"?>
<!-- Generator: Adobe Illustrator 22.0.0, SVG Export Plug-In . SVG Version: 6.00 Build 0)  -->
<svg version="1.1" id="Layer_1" xmlns="http://www.w3.org/2000/svg" xmlns:xlink="http://www.w3.org/1999/xlink" x="0px" y="0px"
	 viewBox="0 0 20 24" enable-background="new 0 0 20 24" xml:space="preserve">
<path fill="#FFFFFF" d="M14.5,0H5.1C4.7,0,4.3,0.3,4.3,0.8v1.1H0.9c-0.4,0-0.8,0.3-0.8,0.8v20.6c0,0.4,0.3,0.8,0.8,0.8h17.4
	c0.4,0,0.8-0.3,0.8-0.8V2.6c0-0.4-0.3-0.8-0.8-0.8h-3.1V0.8C15.3,0.3,14.9,0,14.5,0z M5.9,2.6V1.6h7.8v1.1V4H5.9V2.6z M17.6,3.4v19
	H1.7v-19h2.7v1.4c0,0.4,0.3,0.8,0.8,0.8h9.4c0.4,0,0.8-0.3,0.8-0.8V3.4H17.6z M15.4,13.5H4.2c-0.4,0-0.8,0.3-0.8,0.8
	s0.3,0.8,0.8,0.8h11.3c0.4,0,0.8-0.3,0.8-0.8S15.9,13.5,15.4,13.5z M9.8,17.3H4.2c-0.4,0-0.8,0.3-0.8,0.8s0.3,0.8,0.8,0.8h5.6
	c0.4,0,0.8-0.3,0.8-0.8S10.2,17.3,9.8,17.3z M3.4,10.5c0,0.4,0.3,0.8,0.8,0.8h11.3c0.4,0,0.8-0.3,0.8-0.8s-0.3-0.8-0.8-0.8H4.2
	C3.7,9.7,3.4,10.1,3.4,10.5z"/>
</svg>
