<?xml version="1.0" encoding="utf-8"?>
<!-- Generator: Adobe Illustrator 22.0.0, SVG Export Plug-In . SVG Version: 6.00 Build 0)  -->
<svg version="1.1" id="Layer_1" xmlns="http://www.w3.org/2000/svg" xmlns:xlink="http://www.w3.org/1999/xlink" x="0px" y="0px"
	 viewBox="0 0 24 23" enable-background="new 0 0 24 23" xml:space="preserve">
<path id="profile_icn" transform="translate(1.000000, 0.000000)" fill="#969EB7" d="M11,13c3.6,0,6.5-2.9,6.5-6.5S14.6,0,11,0
	S4.5,2.9,4.5,6.5S7.4,13,11,13z M11,1.7c2.6,0,4.8,2.2,4.8,4.8s-2.2,4.8-4.8,4.8S6.2,9.1,6.2,6.5S8.4,1.7,11,1.7z M-0.2,23h22.3
	c0.5,0,0.8-0.4,0.8-0.9c0-4.5-3.6-8.1-8.1-8.1H7.1C2.6,14-1,17.6-1,22.1C-1,22.6-0.6,23-0.2,23z M7.1,15.7h7.9
	c3.2,0,5.9,2.4,6.3,5.6H0.8C1.2,18.2,3.8,15.7,7.1,15.7z"/>
</svg>
