<?xml version="1.0" encoding="utf-8"?>
<!-- Generator: Adobe Illustrator 22.0.0, SVG Export Plug-In . SVG Version: 6.00 Build 0)  -->
<svg version="1.1" id="Layer_1" xmlns="http://www.w3.org/2000/svg" xmlns:xlink="http://www.w3.org/1999/xlink" x="0px" y="0px"
	 viewBox="0 0 24 37" enable-background="new 0 0 24 37" xml:space="preserve">
<path id="Shape" fill="#9013FE" d="M20.9,23l-4.5-2.1c2-0.7,4.7-1.4,4.7-1.4c0.2-0.1,0.3-0.2,0.4-0.3s0.1-0.4,0-0.5
	c0,0-1.1-2.4-1.1-7.6V8.5c0-4.7-3.8-8.5-8.5-8.5S3.3,3.8,3.3,8.5V11c0,5.2-1.1,7.6-1.1,7.6c-0.1,0.2-0.1,0.4,0,0.5
	c0.1,0.2,0.2,0.3,0.4,0.3c0,0,2.7,0.8,4.7,1.4L2.7,23C1,23.8-0.1,25.6,0,27.5l0.5,8.6c0,0.3,0.3,0.6,0.6,0.6c0,0,0,0,0,0
	c0.3,0,0.6-0.3,0.6-0.7l-0.5-8.6c0-0.8,0.2-1.6,0.6-2.2l1.7,2c0.5,0.7,0.9,1.5,0.9,2.4V36c0,0.3,0.3,0.6,0.6,0.6s0.6-0.3,0.6-0.6
	v-6.4c0-1.1-0.4-2.3-1.1-3.2l-1.8-2.1c0.1-0.1,0.3-0.2,0.4-0.2l3-1.4c0.9,2.3,3.1,3.9,5.6,3.9c2.5,0,4.8-1.6,5.6-3.9l3,1.4
	c0.2,0.1,0.3,0.2,0.4,0.2l-1.8,2.1c-0.7,0.9-1.1,2-1.1,3.2V36c0,0.3,0.3,0.6,0.6,0.6c0.3,0,0.6-0.3,0.6-0.6v-6.4
	c0-0.9,0.3-1.7,0.9-2.4l1.7-2c0.4,0.6,0.7,1.4,0.6,2.2L21.9,36c0,0.3,0.2,0.6,0.6,0.7c0,0,0,0,0,0c0.3,0,0.6-0.3,0.6-0.6l0.5-8.6
	C23.8,25.6,22.7,23.8,20.9,23z M4.6,11.6C4.6,11.3,4.8,11,5,11c0.2,0,0.4,0,0.6,0.2c0.1,0.2,0.3,0.3,0.4,0.3c0.3,0.1,0.5,0,0.8-0.1
	c0.5-0.4,0.9-0.8,1.3-1.3c0.2-0.3,0.1-0.7-0.2-0.9C7.6,9,7.2,9.1,7,9.4C6.9,9.7,6.6,10,6.4,10.2c-0.4-0.4-1-0.5-1.5-0.4
	c-0.1,0-0.2,0-0.3,0.1V8.5c0-4,3.3-7.3,7.3-7.3c4,0,7.3,3.3,7.3,7.3V11c0,4,0.6,6.4,1,7.5c-1,0.3-3.1,0.9-4.6,1.4v-1.5
	c1.1-0.7,1.9-1.7,2.4-2.9c0.3-0.7,0.5-1.5,0.5-2.3c0.1-2.6-2.2-3.3-4.5-4C12,8.7,9.8,8,8,6.3C7.8,6,7.4,6,7.1,6.3
	c-0.2,0.2-0.2,0.6,0,0.9c2,2,4.5,2.7,6.5,3.3c2.5,0.7,3.6,1.1,3.6,2.7c0,0.6-0.2,1.3-0.4,1.8c-0.9,2-2.8,3.2-5,3.2
	c-2.6,0-4.9-1.9-5.4-4.5c-0.1-0.6-0.7-1.1-1.3-1c-0.1,0-0.1,0-0.2,0c-0.3-0.1-0.5-0.3-0.5-0.7V11.6z M3.6,18.5
	c0.3-0.8,0.7-2.3,0.9-4.6c0.1,0,0.2,0.1,0.3,0.1c0.2,0,0.4,0.1,0.5,0c0.3,1.8,1.4,3.4,2.9,4.3v1.5C6.6,19.4,4.6,18.8,3.6,18.5z
	 M11.8,25.4c-2,0-3.8-1.3-4.5-3.2l0.9-0.4c0.7-0.3,1.1-1,1.1-1.8v-1c0.8,0.3,1.6,0.5,2.5,0.5c0.8,0,1.7-0.2,2.4-0.5v1
	c0,0.8,0.4,1.5,1.1,1.8l0.9,0.4C15.6,24.1,13.9,25.4,11.8,25.4z"/>
</svg>
